<svg xmlns="http://www.w3.org/2000/svg" viewBox="0 0 1600 900" role="img" aria-labelledby="t d"><title id="t">춘타클 춘봉 타로 클래스 아카이브 커버</title><desc id="d">보라색 밤하늘과 타로 카드를 모티프로 한 춘타클 2026 아카이브 커버</desc><defs><linearGradient id="b" x1="0" y1="0" x2="1" y2="1"><stop stop-color="#120d21"/><stop offset=".55" stop-color="#24113d"/><stop offset="1" stop-color="#090811"/></linearGradient><radialGradient id="g"><stop stop-color="#9f60ff" stop-opacity=".34"/><stop offset="1" stop-color="#9f60ff" stop-opacity="0"/></radialGradient><linearGradient id="gold"><stop stop-color="#ffe1a0"/><stop offset="1" stop-color="#b976ff"/></linearGradient></defs><rect width="1600" height="900" fill="url(#b)"/><circle cx="1270" cy="210" r="420" fill="url(#g)"/><g fill="none" stroke="#c996ff" stroke-opacity=".22"><circle cx="1260" cy="250" r="170"/><circle cx="1260" cy="250" r="120"/><path d="M1260 36v428M1046 250h428"/></g><g transform="translate(1070 155)"><rect width="220" height="360" rx="24" fill="#171026" stroke="#d7a9ff" stroke-width="4" transform="rotate(-10 110 180)"/><rect x="145" y="45" width="220" height="360" rx="24" fill="#1d1330" stroke="#f0c778" stroke-width="4" transform="rotate(9 255 225)"/><circle cx="257" cy="225" r="56" fill="none" stroke="url(#gold)" stroke-width="10"/><path d="M257 150v150M182 225h150" stroke="#f4d387" stroke-width="5" opacity=".8"/></g><g font-family="system-ui,-apple-system,'Segoe UI',sans-serif"><text x="110" y="150" fill="#d6a7ff" font-size="28" font-weight="850" letter-spacing="5">CHUNBONG CONTENT ARCHIVE</text><text x="110" y="325" fill="#fff7ff" font-size="126" font-weight="950" letter-spacing="-8">춘타클</text><text x="118" y="420" fill="url(#gold)" font-size="50" font-weight="850">춘봉 타로 클래스</text><rect x="110" y="480" width="630" height="6" rx="3" fill="url(#gold)"/><text x="110" y="575" fill="#ded3e7" font-size="31" font-weight="700">타로를 함께 배우고 읽는 클래스 시리즈</text><text x="110" y="635" fill="#a99bb4" font-size="27">2026 · VRChat · 회차별 수강 기록</text><g transform="translate(110 715)"><rect width="230" height="58" rx="29" fill="#9f60ff" fill-opacity=".14" stroke="#b77cff" stroke-opacity=".55"/><text x="115" y="38" text-anchor="middle" fill="#ddbaff" font-size="22" font-weight="800">춘봉 주최 · 강의</text></g><text x="110" y="828" fill="#786d84" font-size="18">팬사이트 아카이브용 커버 · 회차별 포스터와 방송 기록을 함께 보관합니다</text></g></svg>