<svg xmlns="http://www.w3.org/2000/svg" viewBox="0 0 1600 900" role="img" aria-labelledby="title desc">
<title id="title">그냥서버 머니게임 팬사이트 아카이브 커버</title>
<desc id="desc">춘봉 콘텐츠 아카이브에서 사용하는 비공식 그냥서버 머니게임 대표 커버</desc>
<defs>
  <linearGradient id="bg" x1="0" y1="0" x2="1" y2="1"><stop offset="0" stop-color="#0c1110"/><stop offset=".55" stop-color="#142019"/><stop offset="1" stop-color="#080b09"/></linearGradient>
  <linearGradient id="gold" x1="0" x2="1"><stop stop-color="#f6d36f"/><stop offset="1" stop-color="#d88b2c"/></linearGradient>
  <radialGradient id="glow" cx=".76" cy=".42" r=".58"><stop offset="0" stop-color="#e9b44c" stop-opacity=".28"/><stop offset="1" stop-color="#e9b44c" stop-opacity="0"/></radialGradient>
</defs>
<rect width="1600" height="900" fill="url(#bg)"/><rect width="1600" height="900" fill="url(#glow)"/>
<g opacity=".12" fill="none" stroke="#f0c55c" stroke-width="2">
  <path d="M1040 145h370v370h-370zM1095 200h260v260h-260z"/>
  <path d="M1225 105v515M965 330h515"/>
</g>
<g transform="translate(1080 190)">
  <rect x="0" y="0" width="300" height="190" rx="28" fill="#0c120f" stroke="#e3b34c" stroke-width="7"/>
  <circle cx="150" cy="95" r="58" fill="none" stroke="url(#gold)" stroke-width="14"/>
  <text x="150" y="115" text-anchor="middle" font-family="system-ui,sans-serif" font-size="70" font-weight="900" fill="#efd06e">₩</text>
  <path d="M44 250h212" stroke="url(#gold)" stroke-width="14" stroke-linecap="round"/>
  <rect x="72" y="286" width="156" height="86" rx="18" fill="#d99b39" opacity=".14" stroke="#d99b39" stroke-width="5"/>
</g>
<g font-family="system-ui,-apple-system,BlinkMacSystemFont,'Segoe UI',sans-serif">
  <text x="110" y="150" fill="#e7bb55" font-size="28" font-weight="850" letter-spacing="5">CHUNBONG CONTENT ARCHIVE</text>
  <text x="110" y="320" fill="#fff8dc" font-size="105" font-weight="950" letter-spacing="-6">그냥서버</text>
  <text x="116" y="414" fill="#f2ce72" font-size="54" font-weight="850">MONEY GAME</text>
  <rect x="110" y="472" width="585" height="6" rx="3" fill="url(#gold)"/>
  <text x="110" y="565" fill="#d9d2bc" font-size="31" font-weight="700">마인크래프트 스트리머 서버</text>
  <text x="110" y="625" fill="#9e9888" font-size="27">2026.06.24 — 2026.07.15</text>
  <g transform="translate(110 705)"><rect width="210" height="58" rx="29" fill="#e0a642" fill-opacity=".12" stroke="#e0a642" stroke-opacity=".5"/><text x="105" y="38" text-anchor="middle" fill="#f1ca6c" font-size="22" font-weight="800">춘봉 주최</text></g>
  <text x="110" y="825" fill="#706b60" font-size="18">팬사이트 아카이브용 비공식 커버 · 상세 페이지에서 출처 확인 가능</text>
</g>
</svg>